<?xml version="1.0" standalone="no"?>
<!DOCTYPE svg PUBLIC "-//W3C//DTD SVG 20010904//EN"
 "http://www.w3.org/TR/2001/REC-SVG-20010904/DTD/svg10.dtd">
<svg version="1.0" xmlns="http://www.w3.org/2000/svg"
 width="272.000000pt" height="192.000000pt" viewBox="0 0 272.000000 192.000000"
 preserveAspectRatio="xMidYMid meet">
<metadata>
Created by potrace 1.11, written by Peter Selinger 2001-2013
</metadata>
<g transform="translate(0.000000,192.000000) scale(0.100000,-0.100000)"
fill="#000000" stroke="none">
<path d="M960 1840 l0 -80 -160 0 -160 0 0 -80 0 -80 -80 0 -80 0 0 -80 0 -80
-160 0 -160 0 0 -80 0 -80 -80 0 -80 0 0 -240 0 -240 80 0 80 0 0 -80 0 -80
80 0 80 0 0 -160 0 -160 80 0 80 0 0 -80 0 -80 160 0 160 0 0 -80 0 -80 400 0
400 0 0 80 0 80 400 0 400 0 0 80 0 80 80 0 80 0 0 160 0 160 80 0 80 0 0 80
0 80 -80 0 -80 0 0 80 0 80 -80 0 -80 0 0 240 0 240 -80 0 -80 0 0 80 0 80
-80 0 -80 0 0 80 0 80 -80 0 -80 0 0 80 0 80 -480 0 -480 0 0 -80z m480 -160
l0 -80 80 0 80 0 0 80 0 80 160 0 160 0 0 -80 0 -80 80 0 80 0 0 -80 0 -80 80
0 80 0 0 -240 0 -240 -320 0 -320 0 0 -80 0 -80 480 0 480 0 0 -80 0 -80 -480
0 -480 0 0 -80 0 -80 400 0 400 0 0 -80 0 -80 -400 0 -400 0 0 -80 0 -80 -400
0 -400 0 0 80 0 80 -160 0 -160 0 0 80 0 80 160 0 160 0 0 80 0 80 -240 0
-240 0 0 80 0 80 -80 0 -80 0 0 240 0 240 320 0 320 0 0 80 0 80 -80 0 -80 0
0 80 0 80 160 0 160 0 0 80 0 80 240 0 240 0 0 -80z"/>
<path d="M1280 1360 l0 -240 80 0 80 0 0 -80 0 -80 80 0 80 0 0 80 0 80 -80 0
-80 0 0 240 0 240 -80 0 -80 0 0 -240z"/>
<path d="M1920 1280 l0 -160 80 0 80 0 0 160 0 160 -80 0 -80 0 0 -160z"/>
<path d="M800 1200 l0 -80 80 0 80 0 0 -160 0 -160 -80 0 -80 0 0 -80 0 -80
80 0 80 0 0 80 0 80 80 0 80 0 0 160 0 160 -80 0 -80 0 0 80 0 80 -80 0 -80 0
0 -80z"/>
<path d="M1440 720 l0 -80 -80 0 -80 0 0 -80 0 -80 80 0 80 0 0 -80 0 -80 80
0 80 0 0 80 0 80 -80 0 -80 0 0 80 0 80 80 0 80 0 0 80 0 80 -80 0 -80 0 0
-80z"/>
</g>
<g transform="translate(0.000000,192.000000) scale(0.100000,-0.100000)"
fill="rgb(255,242,0)" stroke="none">
<path d="M960 1680 l0 -80 -160 0 -160 0 0 -80 0 -80 80 0 80 0 0 -80 0 -80
80 0 80 0 0 -80 0 -80 80 0 80 0 0 -160 0 -160 -80 0 -80 0 0 80 0 80 -80 0
-80 0 0 -80 0 -80 -240 0 -240 0 0 80 0 80 -80 0 -80 0 0 -80 0 -80 80 0 80 0
0 -80 0 -80 240 0 240 0 0 80 0 80 80 0 80 0 0 -80 0 -80 240 0 240 0 0 80 0
80 80 0 80 0 0 80 0 80 -80 0 -80 0 0 80 0 80 -80 0 -80 0 0 240 0 240 80 0
80 0 0 80 0 80 -240 0 -240 0 0 -80z"/>
</g>
<g transform="translate(0.000000,192.000000) scale(0.100000,-0.100000)"
fill="rgb(255,201,14)" stroke="none">
<path d="M800 560 l0 -80 -160 0 -160 0 0 -80 0 -80 160 0 160 0 0 -80 0 -80
400 0 400 0 0 80 0 80 -80 0 -80 0 0 80 0 80 -80 0 -80 0 0 80 0 80 -240 0
-240 0 0 -80z"/>
</g>
<g transform="translate(0.000000,192.000000) scale(0.100000,-0.100000)"
fill="rgb(255,127,39)" stroke="none">
<path d="M1600 720 l0 -80 -80 0 -80 0 0 -80 0 -80 80 0 80 0 0 -80 0 -80 400
0 400 0 0 80 0 80 -400 0 -400 0 0 80 0 80 480 0 480 0 0 80 0 80 -480 0 -480
0 0 -80z"/>
</g>
<g transform="translate(0.000000,192.000000) scale(0.100000,-0.100000)"
fill="#ffffff" stroke="none">
<path d="M1600 1680 l0 -80 -80 0 -80 0 0 -240 0 -240 80 0 80 0 0 -80 0 -80
320 0 320 0 0 240 0 240 -80 0 -80 0 0 80 0 80 -80 0 -80 0 0 80 0 80 -160 0
-160 0 0 -80z m480 -400 l0 -160 -80 0 -80 0 0 160 0 160 80 0 80 0 0 -160z"/>
<path d="M160 1120 l0 -160 80 0 80 0 0 -80 0 -80 240 0 240 0 0 80 0 80 80 0
80 0 0 80 0 80 -80 0 -80 0 0 80 0 80 -320 0 -320 0 0 -160z"/>
</g>
</svg>
