<?xml version="1.0" encoding="iso-8859-1"?>
<!-- Generator: Adobe Illustrator 19.0.0, SVG Export Plug-In . SVG Version: 6.00 Build 0)  -->
<svg version="1.1" id="Layer_1" xmlns="http://www.w3.org/2000/svg" xmlns:xlink="http://www.w3.org/1999/xlink" x="0px" y="0px"
	 viewBox="0 0 512 512" style="enable-background:new 0 0 512 512;" xml:space="preserve">
<rect x="231.507" y="56.164" style="fill:#5E5456;" width="48.987" height="76.946"/>
<rect x="208.687" y="7.837" style="fill:#FFD359;" width="94.626" height="48.327"/>
<rect x="208.687" y="7.837" style="fill:#DB9840;" width="20.898" height="48.327"/>
<rect x="101.092" y="94.409" transform="matrix(-0.766 0.6428 -0.6428 -0.766 307.2029 153.9423)" style="fill:#5E5456;" width="48.986" height="76.944"/>
<rect x="38.006" y="60.736" transform="matrix(-0.766 0.6428 -0.6428 -0.766 205.2473 95.0882)" style="fill:#FFD359;" width="94.623" height="48.325"/>
<rect x="46.662" y="84.493" transform="matrix(-0.766 0.6428 -0.6428 -0.766 170.532 155.2389)" style="fill:#DB9840;" width="20.702" height="48.325"/>
<rect x="361.935" y="94.42" transform="matrix(0.766 0.6428 -0.6428 0.766 175.8418 -217.3082)" style="fill:#5E5456;" width="48.986" height="76.944"/>
<rect x="379.374" y="60.743" transform="matrix(0.766 0.6428 -0.6428 0.766 154.4151 -254.4147)" style="fill:#FFD359;" width="94.623" height="48.325"/>
<rect x="387.975" y="37.029" transform="matrix(-0.766 -0.6428 0.6428 -0.766 664.2384 364.1604)" style="fill:#DB9840;" width="20.839" height="48.325"/>
<circle style="fill:#FF5948;" cx="256" cy="293.198" r="210.965"/>
<circle style="fill:#D44A3C;" cx="256" cy="293.198" r="193.066"/>
<circle style="fill:#E9F2FF;" cx="256" cy="293.198" r="172.168"/>
<path style="fill:#B9D7FF;" d="M104.727,293.198c0-91.578,71.501-166.444,161.722-171.846c-3.458-0.207-6.939-0.325-10.449-0.325
	c-95.088,0-172.171,77.083-172.171,172.171S160.912,465.369,256,465.369c3.51,0,6.991-0.118,10.449-0.325
	C176.228,459.642,104.727,384.776,104.727,293.198z"/>
<circle style="fill:#5E5456;" cx="256" cy="293.198" r="19.864"/>
<circle style="fill:#FFD359;" cx="256" cy="367" r="34.649"/>
<path d="M483.083,90.806l-23.478-19.735c-0.002-0.002-0.004-0.004-0.006-0.006s-0.004-0.003-0.007-0.005l-25.378-21.333
	c-0.003-0.003-0.006-0.005-0.009-0.008s-0.006-0.005-0.009-0.007L410.72,29.978c-1.59-1.336-3.642-1.986-5.71-1.805
	c-2.068,0.181-3.978,1.178-5.311,2.77l-31.009,37.022c-2.777,3.315-2.346,8.259,0.963,11.04l11.464,9.636l-13.684,16.332
	c-24.392-14.541-51.176-24.064-79.16-28.204V64.001h14.959c4.321,0,7.823-3.509,7.823-7.837V7.837c0-4.328-3.501-7.837-7.823-7.837
	h-94.463c-4.321,0-7.823,3.509-7.823,7.837v48.328c0,4.328,3.503,7.837,7.823,7.837h14.96v12.791
	c-27.173,4.054-53.416,13.203-77.214,27.04c-0.651,0.378-1.287,0.781-1.934,1.166L130.88,88.643l11.465-9.636
	c3.31-2.782,3.742-7.725,0.964-11.04L112.3,30.945c-1.333-1.592-3.243-2.589-5.31-2.77c-2.071-0.18-4.121,0.468-5.71,1.805
	L77.797,49.718c-0.001,0-0.001,0.001-0.001,0.001c-0.001,0.001-0.002,0.002-0.002,0.002l-25.387,21.34
	c-0.001,0.001-0.003,0.002-0.004,0.003c-0.001,0.001-0.002,0.002-0.004,0.003L28.917,90.806c-1.589,1.335-2.584,3.25-2.765,5.32
	c-0.181,2.071,0.467,4.128,1.801,5.721l31.009,37.022c1.547,1.847,3.764,2.799,5.997,2.799c1.774,0,3.559-0.602,5.024-1.834
	l11.459-9.633l13.124,15.664c-9.886,10.862-18.713,22.705-26.264,35.38c-2.213,3.717-1,8.527,2.71,10.746
	c3.709,2.217,8.513,1.001,10.726-2.715c17.679-29.683,42.794-54.543,72.629-71.889C185.104,99.516,220.247,90.07,256,90.07
	c7.886,0,15.712,0.449,23.448,1.339c0.097,0.013,0.193,0.026,0.29,0.036c33.5,3.9,65.314,16.054,93.115,35.727
	c10.17,7.197,19.576,15.235,28.153,24.002c0.266,0.318,0.559,0.619,0.882,0.899c19.298,19.976,34.303,43.712,44.127,70.063
	c1.176,3.151,4.159,5.097,7.33,5.097c0.91,0,1.835-0.16,2.736-0.497c4.048-1.514,6.103-6.029,4.592-10.083
	c-9.835-26.378-24.492-50.318-43.195-70.838l13.079-15.612l11.459,9.632c1.415,1.189,3.196,1.834,5.029,1.834
	c0.226,0,0.455-0.009,0.681-0.029c2.068-0.182,3.978-1.178,5.311-2.77l31.009-37.022C486.824,98.531,486.392,93.587,483.083,90.806z
	 M81.859,66.764l20.952,25.015l-13.408,11.269L68.451,78.034L81.859,66.764z M105.344,47.022l20.952,25.015l-11.499,9.666
	L93.845,56.689L105.344,47.022z M65.919,122.79L44.967,97.775l11.499-9.666l20.951,25.014l-0.041,0.034
	c-0.007,0.006-0.015,0.015-0.022,0.021L65.919,122.79z M105.567,134.615l-12.14-14.489l0.038-0.031
	c0.001-0.001,0.002-0.001,0.003-0.002c0.001-0.001,0.003-0.003,0.004-0.004l23.828-20.03l1.561-1.312l0,0l0,0l0.034-0.029
	l12.43,14.84C122.214,119.92,113.602,126.962,105.567,134.615z M413.224,95.172l-4.038-3.394l20.952-25.015l13.408,11.271
	l-20.952,25.014L413.224,95.172z M406.656,47.022l11.499,9.666l-20.952,25.015l-11.499-9.666L406.656,47.022z M247.249,48.327
	V15.673h17.503v32.653H247.249z M295.409,48.328h-14.928c-0.01,0-0.02-0.001-0.03-0.001h-0.052V15.673h15.011L295.409,48.328
	L295.409,48.328z M216.591,15.673h15.012v32.653h-0.052c-0.01,0-0.02,0.001-0.03,0.001h-14.929V15.673z M239.373,75.037V64.001
	h33.253v11.021c-5.508-0.414-11.053-0.625-16.626-0.625C250.44,74.397,244.895,74.616,239.373,75.037z M406.468,134.572
	c-7.652-7.268-15.858-14.025-24.589-20.203c-0.397-0.281-0.799-0.553-1.197-0.831l12.42-14.822l8.935,7.511l16.491,13.863
	c0.001,0.001,0.002,0.002,0.003,0.003c0,0,0.001,0.001,0.002,0.001l0.039,0.032L406.468,134.572z M446.08,122.79l-11.442-9.618
	c-0.006-0.005-0.01-0.01-0.017-0.016l-0.041-0.033l20.952-25.014l11.499,9.666L446.08,122.79z"/>
<path d="M463.203,254.494c-4.275,0.63-7.23,4.612-6.602,8.894c1.438,9.798,2.167,19.828,2.167,29.811
	c0,112.004-90.962,203.127-202.769,203.127S53.231,405.203,53.231,293.198c0-22.567,3.667-44.729,10.897-65.871
	c1.4-4.094-0.777-8.55-4.865-9.954c-4.088-1.402-8.536,0.78-9.936,4.874c-7.791,22.781-11.742,46.652-11.742,70.951
	C37.586,413.845,135.566,512,256,512s218.415-98.155,218.415-218.802c0-10.744-0.786-21.541-2.334-32.091
	C471.451,256.825,467.467,253.867,463.203,254.494z"/>
<path d="M141.79,432.174c32.048,26.46,72.609,41.032,114.209,41.032c99.08,0,179.688-80.751,179.688-180.008
	S355.08,113.191,256,113.191c-99.081,0-179.689,80.751-179.689,180.008c0,38.417,11.914,75.076,34.453,106.013
	c2.546,3.496,7.442,4.261,10.931,1.711c3.49-2.552,4.254-7.454,1.707-10.949c-20.572-28.236-31.445-61.7-31.445-96.773
	c0-90.615,73.589-164.334,164.044-164.334s164.042,73.719,164.042,164.333S346.453,457.533,256,457.533
	c-37.979,0-75.006-13.301-104.259-37.453c-3.334-2.752-8.265-2.276-11.012,1.064S138.456,429.422,141.79,432.174z"/>
<path d="M195.339,232.969l37.631,44.926c-2.914,4.388-4.618,9.649-4.618,15.303c0,15.271,12.403,27.696,27.647,27.696
	s27.647-12.425,27.647-27.696S271.245,265.502,256,265.502c-3.927,0-7.662,0.83-11.048,2.314l-37.628-44.922
	c-2.777-3.315-7.711-3.748-11.021-0.965C192.993,224.711,192.563,229.654,195.339,232.969z M268.001,293.198
	c0,6.629-5.383,12.023-12.001,12.023S244,299.827,244,293.198c0-6.629,5.383-12.023,12.001-12.023
	C262.618,281.176,268.001,286.57,268.001,293.198z" style="transform-origin:bottom; transform: rotateZ(0deg);"/>
<path d="M263.823,159.019v-13.43c0-4.328-3.501-7.837-7.823-7.837c-4.321,0-7.823,3.509-7.823,7.837v13.43
	c0,4.328,3.503,7.837,7.823,7.837C260.32,166.856,263.823,163.347,263.823,159.019z"/>
<path d="M248.177,427.378v13.43c0,4.328,3.503,7.837,7.823,7.837c4.321,0,7.823-3.509,7.823-7.837v-13.43
	c0-4.328-3.501-7.837-7.823-7.837C251.679,419.541,248.177,423.05,248.177,427.378z"/>
<path d="M210.189,174.949c0.888,0,1.792-0.153,2.675-0.474c4.06-1.481,6.153-5.977,4.676-10.045l-4.585-12.62
	c-1.477-4.068-5.966-6.165-10.027-4.684s-6.153,5.977-4.676,10.045l4.585,12.62C203.994,172.973,206.993,174.949,210.189,174.949z"
	/>
<path d="M309.162,416.606c-1.479-4.068-5.966-6.166-10.027-4.683c-4.06,1.481-6.153,5.978-4.675,10.045l4.586,12.619
	c1.157,3.183,4.156,5.159,7.352,5.159c0.888,0,1.792-0.153,2.675-0.475c4.06-1.481,6.153-5.978,4.675-10.045L309.162,416.606z"/>
<path d="M163.911,195.448c1.548,1.847,3.764,2.799,5.997,2.799c1.774,0,3.559-0.602,5.024-1.834c3.31-2.783,3.742-7.725,0.964-11.04
	l-8.617-10.288c-2.776-3.315-7.711-3.748-11.021-0.965c-3.31,2.783-3.742,7.725-0.964,11.04L163.911,195.448z"/>
<path d="M336.104,401.023l8.617,10.287c1.547,1.847,3.764,2.799,5.997,2.799c1.774,0,3.559-0.602,5.025-1.834
	c3.309-2.783,3.742-7.725,0.963-11.04l-8.617-10.287c-2.776-3.314-7.711-3.748-11.022-0.965
	C333.758,392.766,333.326,397.708,336.104,401.023z"/>
<path d="M136.091,232.895c1.232,0.713,2.577,1.051,3.905,1.051c2.703,0,5.333-1.405,6.781-3.919
	c2.161-3.748,0.879-8.541-2.863-10.705l-11.61-6.715c-3.743-2.165-8.525-0.881-10.686,2.868c-2.161,3.748-0.879,8.541,2.863,10.705
	L136.091,232.895z"/>
<path d="M368.086,367.075l11.61,6.715c1.233,0.713,2.577,1.051,3.905,1.051c2.703,0,5.333-1.406,6.781-3.919
	c2.161-3.748,0.878-8.541-2.863-10.705l-11.61-6.715c-3.744-2.165-8.527-0.88-10.686,2.868
	C363.062,360.119,364.344,364.911,368.086,367.075z"/>
<path d="M103.187,266.206c-0.75,4.262,2.091,8.327,6.346,9.078l13.202,2.332c0.46,0.081,0.916,0.12,1.368,0.12
	c3.724,0,7.026-2.676,7.695-6.477c0.75-4.262-2.091-8.327-6.346-9.078l-13.202-2.332
	C107.997,259.099,103.937,261.943,103.187,266.206z"/>
<path d="M402.467,311.113l-13.202-2.332c-4.26-0.751-8.312,2.095-9.062,6.357c-0.75,4.262,2.09,8.327,6.345,9.078l13.202,2.332
	c0.461,0.081,0.916,0.12,1.368,0.12c3.725,0,7.025-2.676,7.695-6.477C409.563,315.929,406.722,311.864,402.467,311.113z"/>
<path d="M103.187,320.191c0.669,3.802,3.97,6.477,7.695,6.477c0.45,0,0.908-0.04,1.368-0.12l13.202-2.332
	c4.255-0.752,7.096-4.816,6.346-9.078c-0.749-4.262-4.804-7.105-9.062-6.357l-13.202,2.332
	C105.277,311.864,102.436,315.929,103.187,320.191z"/>
<path d="M408.813,266.206c-0.75-4.263-4.812-7.105-9.062-6.357l-13.202,2.332c-4.255,0.752-7.096,4.816-6.345,9.078
	c0.669,3.802,3.97,6.477,7.695,6.477c0.451,0,0.909-0.04,1.368-0.12l13.202-2.332C406.722,274.532,409.563,270.468,408.813,266.206z
	"/>
<path d="M128.4,374.841c1.327,0,2.672-0.339,3.905-1.051l11.61-6.715c3.742-2.164,5.024-6.957,2.863-10.705
	c-2.161-3.748-6.945-5.032-10.686-2.868l-11.61,6.715c-3.742,2.164-5.024,6.957-2.863,10.705
	C123.068,373.436,125.697,374.841,128.4,374.841z"/>
<path d="M379.696,212.607l-11.61,6.715c-3.742,2.164-5.024,6.957-2.863,10.705c1.448,2.514,4.078,3.919,6.781,3.919
	c1.327,0,2.673-0.339,3.905-1.051l11.61-6.715c3.742-2.164,5.024-6.957,2.863-10.705
	C388.222,211.727,383.437,210.442,379.696,212.607z"/>
<path d="M156.258,412.277c1.466,1.232,3.251,1.834,5.025,1.834c2.232,0,4.449-0.952,5.997-2.799l8.617-10.287
	c2.777-3.315,2.346-8.259-0.963-11.04c-3.31-2.783-8.244-2.35-11.022,0.966l-8.617,10.287
	C152.516,404.551,152.948,409.494,156.258,412.277z"/>
<path d="M337.067,196.414c1.466,1.232,3.251,1.834,5.025,1.834c2.233,0,4.449-0.952,5.997-2.799l8.617-10.288
	c2.777-3.315,2.346-8.258-0.963-11.04c-3.31-2.783-8.244-2.35-11.022,0.965l-8.617,10.288
	C333.326,188.689,333.758,193.632,337.067,196.414z"/>
<path d="M202.837,416.606l-4.585,12.619c-1.477,4.067,0.615,8.564,4.676,10.045c0.883,0.322,1.787,0.474,2.675,0.474
	c3.195,0,6.195-1.976,7.352-5.159l4.585-12.619c1.477-4.067-0.615-8.564-4.676-10.045
	C208.803,410.441,204.315,412.539,202.837,416.606z"/>
<path d="M309.072,147.127c-4.063-1.482-8.549,0.616-10.027,4.683l-4.586,12.62c-1.478,4.067,0.615,8.564,4.675,10.045
	c0.883,0.323,1.787,0.475,2.675,0.475c3.195,0,6.196-1.976,7.352-5.159l4.586-12.62
	C315.226,153.105,313.133,148.607,309.072,147.127z"/>
<path d="M256,324.522c-23.383,0-42.405,19.057-42.405,42.48s19.023,42.48,42.405,42.48s42.405-19.057,42.405-42.48
	S279.381,324.522,256,324.522z M256,393.811c-14.755,0-26.76-12.026-26.76-26.807c0-14.781,12.004-26.807,26.76-26.807
	c14.755,0,26.76,12.026,26.76,26.807C282.76,381.785,270.756,393.811,256,393.811z"/>
<g>
</g>
<g>
</g>
<g>
</g>
<g>
</g>
<g>
</g>
<g>
</g>
<g>
</g>
<g>
</g>
<g>
</g>
<g>
</g>
<g>
</g>
<g>
</g>
<g>
</g>
<g>
</g>
<g>
</g>
</svg>
